<?xml version="1.0" encoding="UTF-8" standalone="no"?><!-- Generator: Gravit.io --><svg xmlns="http://www.w3.org/2000/svg" xmlns:xlink="http://www.w3.org/1999/xlink" style="isolation:isolate" viewBox="0 0 1500 1600" width="1500pt" height="1600pt"><defs><clipPath id="_clipPath_w0YvKy9DfE4dEYrxEiCH5OYtz5SAEI3r"><rect width="1500" height="1600"/></clipPath></defs><g clip-path="url(#_clipPath_w0YvKy9DfE4dEYrxEiCH5OYtz5SAEI3r)"><g><rect x="-250" y="-200" width="2000" height="2000" transform="matrix(1,0,0,1,0,0)" fill="none"/><path d=" M 657.608 148.046 C 632.108 200.646 611.408 243.846 611.608 244.046 C 611.808 244.246 622.208 245.046 634.708 245.746 L 657.408 247.146 L 665.708 228.146 C 670.208 217.746 674.008 208.946 674.108 208.846 C 674.508 208.346 740.108 212.546 745.508 213.446 L 749.908 214.146 L 755.508 234.146 L 761.108 254.146 L 784.108 255.646 C 796.708 256.446 807.108 256.946 807.208 256.646 C 807.408 256.346 792.408 210.946 774.108 155.646 L 740.708 55.146 L 734.308 54.546 C 730.808 54.146 722.608 53.546 716.008 53.146 L 703.908 52.446 L 657.608 148.046 Z  M 728.908 140.346 C 734.208 159.146 738.508 175.146 738.508 175.946 C 738.508 177.046 737.508 177.346 734.308 177.046 C 731.908 176.746 721.108 175.946 710.208 175.146 C 699.208 174.446 690.108 173.546 689.808 173.346 C 689.608 173.046 695.708 158.046 703.508 139.946 C 718.208 105.946 718.508 105.346 719.008 105.846 C 719.108 106.046 723.608 121.546 728.908 140.346 Z " fill="rgb(255,255,255)"/><path d=" M 471.708 82.746 C 467.008 83.346 392.508 106.746 390.708 108.146 C 390.608 108.246 404.508 150.546 421.608 202.046 C 442.208 264.246 453.008 295.646 453.808 295.346 C 454.508 295.146 463.608 292.146 474.008 288.646 C 484.508 285.246 493.208 282.246 493.408 282.046 C 493.608 281.946 488.708 266.846 482.708 248.746 C 476.608 230.546 471.908 215.646 472.208 215.646 C 472.508 215.646 487.508 227.146 505.508 241.146 C 523.508 255.146 538.908 266.646 539.608 266.646 C 541.508 266.646 590.508 250.246 590.508 249.646 C 590.508 249.346 573.608 237.946 553.008 224.246 C 532.408 210.546 515.508 199.046 515.508 198.746 C 515.508 198.446 517.508 196.546 520.008 194.646 C 525.508 190.346 533.008 180.846 536.108 174.146 C 540.408 164.846 541.808 157.146 541.208 145.646 C 539.308 106.146 508.208 78.146 471.708 82.746 Z  M 480.908 119.846 C 483.608 120.646 487.008 123.046 490.708 126.646 C 495.308 131.346 496.708 133.446 498.408 139.046 C 500.908 147.146 501.108 152.646 498.908 158.846 C 497.108 164.246 491.608 171.046 487.208 173.346 C 484.808 174.546 462.008 182.646 460.908 182.646 C 460.308 182.646 442.308 127.446 442.808 127.046 C 443.008 126.846 448.308 124.846 454.608 122.746 C 466.908 118.546 473.808 117.746 480.908 119.846 Z " fill="rgb(255,255,255)"/><path d=" M 265.808 180.846 L 248.608 192.946 L 253.908 200.546 C 264.608 215.746 315.608 289.046 338.008 321.346 C 350.708 339.646 361.508 354.446 362.008 354.246 C 363.608 353.746 396.508 330.546 396.508 329.946 C 396.508 329.646 377.708 302.346 354.608 269.246 C 288.808 174.646 285.008 169.346 284.008 169.046 C 283.408 168.846 275.308 174.246 265.808 180.846 Z " fill="rgb(255,255,255)"/><path d=" M 161.008 306.746 C 133.708 310.546 108.008 325.946 91.908 348.246 C 86.208 356.246 79.108 371.246 76.308 381.246 C 74.408 388.046 74.108 391.746 74.108 407.146 C 74.108 426.946 75.208 432.846 81.508 447.946 C 93.008 475.546 119.408 498.046 149.508 505.646 C 166.608 510.046 189.408 509.346 205.508 504.046 C 233.408 494.646 254.408 476.146 266.708 449.946 C 279.508 422.746 279.208 391.846 266.008 363.946 C 260.608 352.446 257.008 347.246 248.108 337.846 C 241.608 330.946 230.308 321.646 228.508 321.646 C 228.108 321.646 215.508 338.846 200.508 359.846 C 185.508 380.946 172.808 398.546 172.408 399.146 C 171.808 400.046 196.408 418.646 198.208 418.646 C 198.608 418.546 205.308 409.646 213.008 398.646 C 220.708 387.646 227.308 378.646 227.608 378.646 C 228.708 378.646 234.308 389.946 235.908 395.546 C 238.008 402.546 238.008 415.746 235.908 422.746 C 233.308 431.646 227.408 441.746 220.608 448.946 C 202.008 468.646 170.808 472.246 145.708 457.446 C 136.208 451.946 126.308 441.146 121.708 431.446 C 116.508 420.546 115.008 414.146 115.108 402.646 C 115.308 386.446 121.008 373.946 133.908 361.946 C 137.308 358.746 142.508 354.846 145.308 353.346 C 151.608 349.946 163.808 347.546 171.508 348.246 L 177.008 348.746 L 189.708 330.746 C 196.808 320.946 202.808 312.146 203.108 311.346 C 204.408 307.746 176.108 304.646 161.008 306.746 Z " fill="rgb(255,255,255)"/><path d=" M 679.008 320.746 C 588.308 325.746 497.608 357.646 425.008 410.046 C 363.108 454.646 314.408 509.746 278.208 576.146 C 257.608 614.046 240.608 659.846 231.608 702.146 C 222.708 743.646 221.108 760.246 221.108 807.646 C 221.108 854.846 222.908 872.546 232.108 914.646 C 247.308 983.846 279.208 1051.146 323.908 1108.146 C 350.708 1142.246 390.708 1180.346 426.008 1205.346 C 449.108 1221.646 467.708 1232.546 496.608 1246.546 C 519.508 1257.646 532.808 1263.046 555.508 1270.446 C 631.408 1295.146 709.808 1300.846 791.008 1287.546 C 809.208 1284.546 845.508 1275.246 865.208 1268.546 C 955.008 1237.846 1034.408 1180.746 1094.008 1104.146 C 1103.308 1092.146 1124.208 1060.646 1131.208 1048.146 C 1159.908 996.646 1177.008 948.946 1187.408 891.146 C 1196.808 839.246 1196.808 774.946 1187.408 723.146 C 1182.508 696.046 1179.608 684.346 1171.308 658.146 C 1152.208 597.846 1120.208 540.346 1077.808 490.446 C 1059.308 468.646 1029.908 440.746 1006.008 422.146 C 943.108 373.146 869.108 340.446 791.408 327.246 C 752.208 320.546 717.908 318.646 679.008 320.746 Z  M 699.008 331.846 C 698.608 335.346 697.808 341.746 697.108 346.146 L 696.008 354.146 L 690.508 354.346 C 606.208 357.946 526.108 384.346 455.408 431.646 C 408.108 463.446 363.508 508.346 332.008 556.146 C 302.308 601.246 281.708 647.946 269.708 697.646 C 262.108 728.846 259.208 748.246 257.408 779.646 C 256.708 790.946 256.108 800.246 256.008 800.446 C 255.908 800.546 250.508 801.346 243.908 802.146 C 237.408 802.946 230.808 803.846 229.308 804.146 L 226.508 804.546 L 226.508 794.346 C 226.508 773.846 230.908 734.846 236.008 710.046 C 239.108 695.146 247.108 666.046 252.308 650.646 C 260.008 628.146 269.208 607.046 281.308 584.146 C 305.708 537.846 332.708 501.546 369.708 464.946 C 428.508 406.946 495.608 367.846 578.508 343.246 C 604.008 335.646 650.108 328.046 678.508 326.746 C 687.608 326.346 696.008 325.846 697.308 325.846 C 699.608 325.646 699.608 325.746 699.008 331.846 Z  M 733.508 326.646 C 755.308 327.746 778.808 330.746 803.808 335.646 C 912.708 357.246 1013.508 419.346 1085.108 509.246 C 1137.408 574.846 1173.208 658.946 1184.008 741.646 C 1186.308 758.946 1188.508 784.946 1188.508 795.546 L 1188.508 804.846 L 1185.308 804.346 C 1183.508 803.946 1177.308 803.246 1171.508 802.546 C 1165.708 801.946 1160.708 801.146 1160.208 800.746 C 1159.808 800.346 1159.008 791.746 1158.508 781.546 C 1154.608 711.346 1135.308 645.046 1100.908 583.946 C 1059.308 510.046 997.808 449.846 920.908 407.846 C 891.508 391.846 848.708 375.146 816.208 367.246 C 789.008 360.546 753.708 355.746 725.508 354.846 L 706.008 354.146 L 704.908 346.146 C 704.208 341.746 703.408 335.346 703.008 331.846 L 702.308 325.646 L 707.708 325.646 C 710.608 325.646 722.208 326.146 733.508 326.646 Z  M 707.008 378.146 C 710.808 408.546 718.308 466.346 724.608 514.646 C 726.808 531.446 730.608 560.646 733.008 579.646 C 738.408 622.546 744.208 666.946 750.008 711.146 C 752.508 729.846 754.508 746.546 754.508 748.146 C 754.508 750.746 751.308 754.446 731.108 774.546 L 707.708 797.846 L 707.108 768.546 C 706.808 752.346 706.308 712.346 706.008 679.646 C 705.708 646.946 704.808 565.446 704.008 498.646 C 702.508 379.546 702.408 345.646 703.108 348.646 C 703.308 349.446 705.108 362.746 707.008 378.146 Z  M 695.208 363.846 C 694.808 365.646 692.308 384.446 689.608 405.646 C 681.108 470.946 676.508 506.546 674.508 521.546 C 673.508 529.446 672.508 536.046 672.308 536.246 C 672.108 536.446 667.008 537.546 660.908 538.646 C 635.208 543.646 618.208 548.846 597.508 558.046 C 571.308 569.746 545.408 586.746 525.108 605.646 C 520.908 609.546 517.008 612.646 516.608 612.446 C 515.808 612.146 496.808 591.646 426.508 515.246 C 411.908 499.446 399.908 485.946 399.808 485.346 C 399.608 483.846 415.208 469.746 431.008 457.046 C 443.108 447.446 475.108 425.746 488.708 418.046 C 548.308 384.046 625.008 362.246 689.408 360.746 L 695.708 360.646 L 695.208 363.846 Z  M 762.108 363.646 C 841.108 373.546 917.508 404.846 979.508 453.046 C 987.508 459.246 1011.208 479.546 1014.208 482.846 L 1016.408 485.246 L 955.008 546.646 L 893.608 608.046 L 889.008 604.046 C 861.008 580.246 836.808 565.246 807.508 553.646 C 787.208 545.546 761.008 538.846 740.708 536.546 C 730.608 535.446 729.408 535.046 729.008 533.246 C 728.608 531.246 725.908 510.146 713.508 414.146 C 710.208 388.246 707.208 365.646 706.908 363.746 L 706.308 360.346 L 726.208 360.946 C 737.108 361.346 753.308 362.546 762.108 363.646 Z  M 429.708 527.646 C 448.608 548.246 473.508 575.246 485.008 587.646 C 496.408 600.046 507.008 612.146 508.608 614.546 L 511.408 618.946 L 506.708 624.146 C 471.508 662.646 447.508 713.146 440.008 764.146 C 439.008 770.746 438.108 776.346 437.908 776.446 C 437.808 776.646 427.808 778.046 415.808 779.646 C 359.708 786.946 328.408 791.046 297.108 795.246 C 278.508 797.646 263.008 799.446 262.708 799.146 C 262.408 798.846 262.608 790.446 263.308 780.346 C 267.408 716.046 282.808 659.346 311.108 604.146 C 327.608 571.846 344.208 546.746 366.908 519.646 C 376.308 508.346 393.808 489.646 394.608 489.946 C 394.908 490.046 410.708 507.046 429.708 527.646 Z  M 1030.108 498.846 C 1089.808 560.746 1132.208 644.546 1146.408 729.146 C 1150.708 754.546 1154.608 798.046 1152.708 799.746 C 1152.308 800.146 1145.708 799.546 1138.008 798.546 C 1126.208 796.946 1069.508 789.646 996.308 780.246 C 986.508 779.046 978.308 777.846 978.108 777.546 C 977.908 777.346 977.008 771.946 976.008 765.646 C 968.208 711.646 942.008 658.046 904.708 619.446 C 900.108 614.746 899.308 613.346 900.108 611.746 C 901.008 609.846 1019.508 489.846 1020.608 489.746 C 1020.908 489.646 1025.208 493.846 1030.108 498.846 Z  M 753.508 544.846 C 798.708 552.146 842.708 572.846 879.908 604.246 C 883.708 607.546 887.008 610.646 887.208 611.246 C 887.508 612.246 877.508 619.646 875.708 619.646 C 875.308 619.646 871.108 616.446 866.508 612.546 C 832.508 584.346 787.008 564.146 743.608 558.246 C 737.908 557.446 732.908 556.446 732.408 555.946 C 732.008 555.546 731.308 552.046 730.908 548.346 L 730.208 541.546 L 735.608 542.146 C 738.608 542.546 746.608 543.746 753.508 544.846 Z  M 671.008 550.346 C 670.608 554.146 670.008 557.446 669.608 557.846 C 669.308 558.146 665.008 559.246 660.008 560.146 C 655.108 561.046 646.308 563.146 640.508 564.846 C 601.908 575.946 568.908 594.546 537.008 623.046 L 531.908 627.546 L 525.708 623.446 C 522.308 621.246 519.808 619.046 520.108 618.546 C 521.308 616.446 539.808 600.646 548.908 593.746 C 566.608 580.346 590.008 567.246 610.308 559.246 C 628.608 552.046 658.708 544.046 668.808 543.746 L 671.708 543.646 L 671.008 550.346 Z  M 765.008 568.546 C 791.508 574.646 819.808 587.046 843.808 603.346 C 854.708 610.646 869.508 622.346 869.508 623.546 C 869.408 624.346 751.408 701.846 750.908 701.346 C 750.708 701.246 748.708 686.646 746.508 669.146 C 744.208 651.546 740.208 620.746 737.508 600.646 C 734.908 580.546 732.908 563.846 733.108 563.546 C 733.508 562.746 753.408 565.846 765.008 568.546 Z  M 665.108 594.846 C 663.208 609.246 659.308 639.346 656.408 661.646 C 653.608 683.946 651.108 702.246 651.008 702.446 C 650.908 702.546 640.708 696.346 628.408 688.546 C 604.608 673.446 597.308 668.846 563.808 647.646 C 552.208 640.246 541.608 633.446 540.308 632.446 L 538.008 630.646 L 543.508 625.646 C 573.208 598.546 610.708 578.446 648.908 569.146 C 666.708 564.846 667.908 564.746 668.308 566.846 C 668.508 567.746 667.008 580.346 665.108 594.846 Z  M 891.808 619.846 C 887.608 626.446 865.808 659.646 832.708 710.146 C 825.808 720.546 816.408 734.946 811.708 742.146 C 807.008 749.246 803.108 755.246 803.008 755.446 C 802.608 755.946 767.108 751.546 765.108 750.746 C 763.508 750.146 765.908 747.246 781.508 731.046 C 791.608 720.646 821.408 689.746 847.808 662.346 C 874.208 635.046 896.008 612.646 896.108 612.646 C 896.308 612.646 894.408 615.946 891.808 619.846 Z  M 902.508 625.946 C 930.008 655.246 954.408 699.246 963.908 737.146 C 966.408 747.146 969.808 764.246 971.008 772.546 L 971.608 776.946 L 964.308 776.246 C 960.408 775.946 956.908 775.446 956.708 775.146 C 956.508 774.946 955.208 769.246 954.008 762.446 C 951.208 747.646 949.408 740.146 945.308 727.646 C 935.008 695.846 916.908 664.446 894.408 639.446 C 890.608 635.246 887.508 631.446 887.508 631.146 C 887.508 630.146 894.508 618.646 895.108 618.646 C 895.408 618.646 898.708 621.946 902.508 625.946 Z  M 582.008 661.546 C 612.808 681.046 640.808 698.746 644.308 700.946 C 647.708 703.046 650.508 705.346 650.508 705.846 C 650.508 707.846 646.308 741.146 645.908 742.446 C 645.308 744.346 642.508 741.746 593.408 694.146 C 538.808 641.346 519.308 621.946 523.008 624.246 C 524.708 625.246 551.208 641.946 582.008 661.546 Z  M 518.808 630.446 C 520.808 633.646 522.508 636.646 522.508 637.046 C 522.508 637.446 519.508 641.246 515.908 645.446 C 507.908 654.746 492.708 677.646 485.708 690.746 C 474.708 711.446 465.508 738.846 461.008 764.746 L 459.408 774.346 L 454.208 775.046 C 444.008 776.246 444.208 776.346 445.008 770.346 C 446.408 759.346 452.708 732.646 456.608 721.146 C 468.008 687.646 486.108 656.446 509.908 629.546 C 512.208 626.946 514.208 624.846 514.508 624.746 C 514.808 624.746 516.708 627.246 518.808 630.446 Z  M 891.108 644.946 C 911.308 668.646 928.408 697.346 937.308 722.746 C 943.508 740.246 951.008 772.446 949.308 774.146 C 949.108 774.346 945.808 774.146 942.008 773.546 C 938.108 773.046 915.908 770.146 892.508 767.146 C 869.108 764.246 840.308 760.546 828.508 759.046 C 816.708 757.546 806.708 756.046 806.308 755.646 C 805.808 755.346 815.508 739.746 827.808 721.146 C 840.008 702.446 857.508 675.846 866.508 661.946 C 875.608 648.046 883.208 636.746 883.508 636.646 C 883.808 636.646 887.208 640.346 891.108 644.946 Z  M 531.608 650.946 C 534.208 654.846 542.708 668.246 550.508 680.646 C 558.308 693.046 566.908 706.546 569.508 710.646 C 591.408 744.946 597.508 755.046 596.808 755.646 C 596.408 756.046 581.408 758.246 563.508 760.546 C 490.608 769.946 469.308 772.646 467.608 772.646 C 465.808 772.646 465.808 772.346 467.608 762.846 C 474.108 727.346 488.808 692.646 509.308 664.146 C 516.408 654.346 525.308 643.646 526.308 643.646 C 526.708 643.646 529.108 646.946 531.608 650.946 Z  M 673.808 774.846 C 689.308 787.546 702.208 798.146 702.408 798.346 C 702.608 798.446 702.608 798.846 702.408 799.046 C 702.108 799.446 596.308 800.746 375.008 803.146 C 348.108 803.446 307.808 803.946 285.508 804.246 C 263.208 804.646 245.208 804.646 245.508 804.346 C 245.808 804.046 253.708 802.846 263.008 801.646 C 272.408 800.446 296.708 797.346 317.008 794.646 C 337.408 791.946 376.708 786.746 404.508 783.146 C 432.308 779.546 473.708 774.146 496.508 771.146 C 519.308 768.146 550.608 764.046 566.008 762.046 C 581.408 760.046 604.808 756.946 618.008 755.146 C 631.208 753.346 642.808 751.846 643.808 751.746 C 644.808 751.646 658.208 761.946 673.808 774.846 Z  M 1003.908 804.646 C 1095.208 805.746 1170.108 806.846 1170.308 807.146 C 1170.608 807.446 1170.108 807.646 1169.308 807.646 C 1167.908 807.646 1134.608 811.846 1021.508 826.246 C 993.208 829.846 947.308 835.646 919.508 839.246 C 891.708 842.746 847.608 848.346 821.508 851.646 C 795.408 855.046 770.108 858.246 765.208 858.846 C 760.408 859.446 756.308 859.746 756.108 859.546 C 751.008 853.746 709.508 802.446 709.508 802.046 C 709.508 801.346 740.808 801.546 1003.908 804.646 Z  M 703.608 979.246 C 702.508 1075.446 701.208 1181.446 700.908 1214.946 C 700.508 1248.346 700.008 1275.546 699.808 1275.346 C 699.608 1275.146 697.008 1255.446 694.008 1231.546 C 688.608 1189.046 683.708 1150.546 671.508 1054.646 C 668.208 1028.546 662.608 984.146 659.008 956.146 C 655.408 928.046 651.208 895.446 649.708 883.646 L 646.808 862.146 L 675.808 832.946 C 691.808 816.846 705.108 803.846 705.308 804.046 C 705.408 804.246 704.708 883.146 703.608 979.246 Z  M 1188.508 817.346 C 1188.408 835.246 1185.108 869.146 1181.008 893.746 C 1178.808 906.846 1169.208 943.746 1164.308 958.146 C 1148.008 1006.246 1127.708 1046.146 1099.208 1086.546 C 1084.808 1106.946 1070.308 1124.046 1049.608 1145.046 C 1030.708 1164.246 1016.808 1176.446 996.908 1191.446 C 954.808 1223.046 913.808 1244.946 864.508 1262.146 C 818.308 1278.346 760.308 1288.546 715.308 1288.646 L 702.608 1288.646 L 703.008 1285.846 C 703.308 1284.346 704.208 1277.546 705.108 1270.646 C 705.908 1263.846 706.708 1258.146 706.808 1257.946 C 706.908 1257.846 716.508 1257.346 728.008 1256.746 C 773.608 1254.346 808.808 1247.846 850.008 1234.246 C 897.508 1218.446 939.408 1196.346 980.008 1165.646 C 1036.008 1123.346 1081.508 1068.346 1112.608 1005.246 C 1140.308 949.246 1154.608 894.146 1158.508 828.646 C 1159.108 819.046 1159.708 811.046 1159.908 810.946 C 1160.208 810.646 1183.208 807.146 1187.308 806.746 C 1188.208 806.646 1188.508 809.346 1188.508 817.346 Z  M 248.008 810.046 L 256.008 811.146 L 257.208 830.646 C 259.208 863.846 261.908 881.646 269.708 913.646 C 279.408 953.846 296.008 995.346 316.008 1029.646 C 332.508 1058.046 348.808 1080.746 369.008 1103.446 C 374.508 1109.746 380.108 1116.046 381.308 1117.646 C 384.808 1121.846 413.708 1148.346 423.008 1155.846 C 482.108 1203.246 543.108 1232.246 616.508 1248.046 C 637.308 1252.446 671.508 1256.646 687.308 1256.646 C 692.208 1256.646 694.708 1257.046 695.008 1257.846 C 695.908 1260.046 699.208 1287.646 698.708 1288.146 C 697.308 1289.546 665.308 1287.346 642.008 1284.246 C 579.908 1275.946 513.108 1252.346 458.908 1219.446 C 436.408 1205.746 411.008 1187.146 391.608 1170.246 C 303.408 1093.546 245.908 986.746 230.508 871.146 C 228.508 856.046 226.508 830.146 226.508 818.746 L 226.508 807.446 L 233.308 808.146 C 237.008 808.546 243.608 809.346 248.008 810.046 Z  M 1152.908 821.846 C 1150.308 874.346 1141.708 916.746 1124.308 963.446 C 1113.108 993.346 1091.808 1033.746 1073.508 1059.646 C 1063.008 1074.646 1044.808 1097.246 1034.808 1107.746 L 1026.208 1116.646 L 1021.608 1112.446 C 991.008 1084.746 899.508 999.346 899.508 998.646 C 899.508 998.046 902.808 994.146 906.808 989.846 C 943.608 950.346 968.308 898.946 976.008 845.646 C 977.008 839.346 977.808 834.046 977.908 833.946 C 978.108 833.746 994.108 831.646 1013.608 829.146 C 1033.108 826.646 1068.108 822.146 1091.508 819.146 C 1146.708 812.046 1147.508 811.946 1150.708 811.746 L 1153.408 811.646 L 1152.908 821.846 Z  M 322.008 819.646 C 347.308 822.946 383.208 827.746 401.808 830.146 C 420.408 832.646 436.208 834.646 436.908 834.646 C 437.708 834.646 438.608 837.846 439.408 843.846 C 446.008 894.046 472.008 950.046 505.408 985.946 L 509.908 990.746 L 497.908 1002.646 C 491.408 1009.146 463.308 1036.646 435.508 1063.546 L 385.008 1112.646 L 380.708 1107.946 C 349.908 1073.746 327.608 1041.046 308.408 1002.146 C 286.108 956.746 273.808 916.146 266.508 864.146 C 264.608 850.646 262.508 825.846 262.508 816.746 L 262.508 812.346 L 269.208 812.946 C 272.908 813.346 296.708 816.346 322.008 819.646 Z  M 970.908 838.846 C 964.408 886.746 946.808 929.446 918.508 966.646 C 911.708 975.446 896.708 992.646 895.708 992.646 C 895.308 992.646 893.308 989.946 891.208 986.646 L 887.308 980.746 L 889.308 977.946 C 890.408 976.446 892.508 974.046 894.008 972.646 C 895.508 971.246 900.208 965.646 904.408 960.146 C 931.508 925.146 947.408 888.646 954.608 845.646 C 955.208 841.546 956.108 837.746 956.508 837.346 C 957.208 836.546 964.808 834.946 969.308 834.746 C 971.408 834.646 971.508 834.946 970.908 838.846 Z  M 455.208 837.146 C 459.808 837.846 459.808 837.946 462.108 852.146 C 464.808 868.946 474.908 899.446 483.708 917.146 C 492.008 933.746 504.508 952.846 515.808 965.846 L 521.708 972.746 L 517.808 978.646 C 515.708 981.946 513.608 984.646 513.008 984.546 C 511.808 984.446 501.708 972.646 494.308 962.646 C 480.608 943.946 467.108 919.046 459.108 897.546 C 454.608 885.246 448.908 863.746 446.408 849.346 C 443.908 834.646 443.908 835.346 447.808 835.946 C 449.508 836.246 452.908 836.846 455.208 837.146 Z  M 949.508 838.846 C 949.408 842.246 946.408 858.546 944.508 865.446 C 933.408 906.146 915.108 940.246 888.708 969.646 L 883.808 975.046 L 880.908 970.946 C 879.308 968.646 872.308 958.046 865.408 947.446 C 858.408 936.846 842.108 912.046 829.108 892.246 C 816.008 872.546 805.608 856.146 805.908 855.946 C 806.208 855.646 827.208 852.746 852.708 849.546 C 878.208 846.346 908.708 842.346 920.508 840.746 C 945.308 837.446 949.508 837.146 949.508 838.846 Z  M 497.508 842.646 C 513.708 844.746 541.608 848.446 559.508 850.646 C 577.408 852.946 593.208 855.046 594.708 855.446 C 597.408 856.146 597.008 856.646 561.708 911.346 C 542.108 941.746 525.608 966.546 525.108 966.646 C 524.608 966.646 523.708 966.046 523.108 965.246 C 512.908 952.446 502.808 938.346 498.608 931.346 C 484.408 907.746 473.208 878.346 468.008 850.946 C 466.308 842.346 466.108 838.646 467.308 838.646 C 467.708 838.646 481.308 840.446 497.508 842.646 Z  M 624.008 859.146 C 635.008 860.646 644.508 862.246 645.008 862.746 C 645.708 863.446 640.608 869.046 630.008 879.446 C 601.208 907.646 527.508 978.946 518.208 987.646 C 510.208 995.046 509.408 995.646 511.608 992.046 C 512.908 989.846 533.308 958.246 556.908 921.846 C 593.808 864.946 600.208 855.746 601.908 856.146 C 603.108 856.346 613.008 857.746 624.008 859.146 Z  M 775.508 877.446 C 793.308 895.546 806.708 909.346 846.508 950.646 C 862.108 966.846 880.108 985.546 886.408 992.046 C 895.308 1001.146 897.108 1003.346 894.008 1001.546 C 891.808 1000.246 866.808 983.946 838.508 965.246 C 810.208 946.646 779.108 926.146 769.508 919.846 C 759.908 913.546 751.808 908.246 751.608 908.046 C 751.208 907.646 756.508 863.446 757.208 862.346 C 758.308 860.446 761.208 862.746 775.508 877.446 Z  M 651.808 915.346 C 657.408 959.746 665.908 1025.746 667.108 1034.446 C 667.908 1040.746 668.408 1046.046 668.208 1046.346 C 667.508 1047.046 652.408 1043.946 642.508 1041.046 C 606.108 1030.446 573.808 1012.746 546.808 988.846 C 542.808 985.346 539.808 982.046 540.008 981.546 C 540.308 981.146 551.008 974.046 563.808 965.846 C 588.908 949.746 602.908 940.646 631.008 922.446 C 640.908 915.946 649.508 910.646 650.108 910.646 C 650.708 910.646 651.508 912.746 651.808 915.346 Z  M 772.608 924.246 C 783.308 931.246 804.408 945.146 819.508 955.146 C 834.608 965.146 852.108 976.546 858.308 980.646 C 871.508 989.346 871.908 987.446 854.508 1000.546 C 827.608 1020.846 797.808 1034.946 764.808 1043.146 C 754.208 1045.746 734.508 1048.946 733.708 1048.146 C 733.408 1047.946 734.008 1041.946 734.908 1034.946 C 735.808 1027.946 739.408 999.146 743.008 971.146 C 751.308 905.846 750.608 910.446 752.008 911.046 C 752.608 911.246 761.908 917.246 772.608 924.246 Z  M 541.308 992.446 C 567.908 1015.846 597.608 1032.946 630.308 1043.646 C 641.308 1047.246 663.308 1052.646 666.908 1052.646 C 669.008 1052.646 670.208 1055.846 670.608 1062.646 L 671.008 1068.146 L 667.508 1067.846 C 661.008 1067.246 649.108 1064.546 634.508 1060.446 C 599.508 1050.546 568.908 1034.446 539.008 1010.146 C 529.708 1002.546 520.808 993.946 521.608 993.346 C 522.608 992.446 533.008 985.646 533.308 985.646 C 533.508 985.646 537.108 988.646 541.308 992.446 Z  M 882.308 996.446 L 887.708 999.846 L 885.308 1002.346 C 881.508 1006.546 864.108 1020.246 854.708 1026.446 C 836.908 1038.346 813.708 1049.846 793.908 1056.546 C 775.008 1062.946 744.208 1069.646 733.608 1069.646 L 730.408 1069.646 L 731.008 1064.846 C 732.408 1054.146 731.408 1055.146 742.308 1053.746 C 765.608 1050.746 796.008 1041.346 818.008 1030.446 C 834.508 1022.246 854.408 1009.146 868.508 997.346 C 872.108 994.346 875.508 992.146 876.008 992.446 C 876.608 992.746 879.408 994.546 882.308 996.446 Z  M 527.308 1007.946 C 545.608 1024.146 557.308 1032.446 578.108 1043.846 C 603.708 1058.046 639.508 1070.146 667.608 1074.046 L 672.208 1074.746 L 674.808 1095.446 C 684.708 1174.146 688.908 1206.946 691.508 1226.646 C 693.208 1238.946 694.508 1249.446 694.508 1249.846 C 694.508 1251.146 679.208 1250.746 664.308 1249.146 C 643.808 1246.946 612.508 1241.546 597.908 1237.546 C 543.608 1222.946 500.208 1203.046 455.208 1172.346 C 439.008 1161.346 415.508 1142.246 401.108 1128.446 L 389.208 1117.146 L 407.608 1099.546 C 466.608 1043.246 514.808 997.646 515.308 997.646 C 515.508 997.646 520.908 1002.246 527.308 1007.946 Z  M 955.508 1059.946 C 987.708 1089.646 1015.808 1115.646 1017.908 1117.746 L 1021.908 1121.546 L 1013.408 1129.446 C 999.008 1142.946 989.508 1150.946 976.008 1161.046 C 913.208 1208.446 843.008 1237.146 764.808 1247.546 C 749.608 1249.646 708.908 1252.346 707.908 1251.346 C 707.608 1251.146 708.808 1240.146 710.508 1227.046 C 712.108 1213.846 715.108 1190.546 717.108 1175.146 C 726.408 1100.646 729.708 1077.146 730.808 1076.446 C 731.508 1076.046 733.608 1075.646 735.608 1075.646 C 740.508 1075.646 763.908 1071.346 776.208 1068.246 C 815.408 1058.246 857.808 1035.646 887.508 1008.846 C 892.208 1004.646 893.308 1004.046 895.008 1004.946 C 896.108 1005.546 923.308 1030.246 955.508 1059.946 Z " fill="rgb(255,255,255)"/><path d=" M 671.508 384.046 C 671.508 390.546 673.908 411.346 674.708 412.146 C 675.808 413.146 675.108 392.846 673.908 385.846 C 673.308 382.646 671.508 381.346 671.508 384.046 Z " fill="rgb(255,255,255)"/><path d=" M 641.008 386.846 C 640.408 388.446 644.008 414.446 645.008 415.546 C 646.508 417.046 646.508 413.346 645.008 402.546 C 642.908 387.746 642.008 384.446 641.008 386.846 Z " fill="rgb(255,255,255)"/><path d=" M 609.508 392.646 C 609.508 394.346 615.608 421.046 616.108 421.546 C 616.308 421.846 616.908 421.546 617.308 421.046 C 618.308 419.946 611.608 391.646 610.408 391.646 C 609.908 391.646 609.508 392.146 609.508 392.646 Z " fill="rgb(255,255,255)"/><path d=" M 579.308 400.146 C 579.008 400.446 580.508 406.346 582.608 413.246 C 584.808 420.146 586.508 426.446 586.508 427.246 C 586.508 428.046 587.208 428.646 588.108 428.646 C 588.908 428.646 589.508 428.046 589.308 427.346 C 587.608 420.346 580.908 399.646 580.508 399.646 C 580.108 399.646 579.608 399.846 579.308 400.146 Z " fill="rgb(255,255,255)"/><path d=" M 549.508 411.646 C 549.508 413.546 559.908 438.646 560.708 438.646 C 561.108 438.646 561.508 438.146 561.508 437.546 C 561.508 435.346 551.308 410.646 550.408 410.646 C 549.908 410.646 549.508 411.046 549.508 411.646 Z " fill="rgb(255,255,255)"/><path d=" M 520.608 424.346 C 520.608 424.846 523.508 430.946 526.908 438.146 C 531.408 447.246 533.508 450.646 533.908 449.546 C 534.708 447.646 523.208 423.646 521.508 423.646 C 520.908 423.646 520.508 423.946 520.608 424.346 Z " fill="rgb(255,255,255)"/><path d=" M 493.208 438.346 C 492.308 439.846 506.808 464.446 508.308 463.946 C 509.308 463.546 509.308 463.046 508.208 461.246 C 507.408 460.146 504.208 454.646 501.108 449.146 C 494.708 438.046 494.008 437.046 493.208 438.346 Z " fill="rgb(255,255,255)"/><path d=" M 466.208 455.246 C 465.308 456.146 481.708 479.646 483.308 479.646 C 485.108 479.646 485.208 479.846 476.008 466.346 C 468.108 454.846 467.408 454.046 466.208 455.246 Z " fill="rgb(255,255,255)"/><path d=" M 440.508 474.146 C 440.508 475.546 458.908 497.546 459.608 497.046 C 460.808 496.346 460.408 495.746 451.008 483.846 C 446.608 478.246 442.408 473.746 441.808 473.646 C 441.108 473.646 440.508 473.846 440.508 474.146 Z " fill="rgb(255,255,255)"/><path d=" M 417.308 494.246 C 416.508 494.946 419.608 498.746 430.308 509.946 C 433.908 513.646 437.108 516.346 437.608 515.946 C 438.008 515.546 433.808 510.246 428.208 504.346 C 422.608 498.346 417.708 493.746 417.308 494.246 Z " fill="rgb(255,255,255)"/><path d=" M 735.708 396.846 C 735.108 404.646 734.908 411.446 735.108 411.846 C 736.608 414.146 737.308 411.546 737.908 401.846 C 738.308 395.946 738.808 389.246 739.108 386.846 C 739.608 383.546 739.408 382.646 738.308 382.646 C 737.108 382.646 736.608 385.546 735.708 396.846 Z " fill="rgb(255,255,255)"/><path d=" M 768.208 387.846 C 766.808 393.746 764.208 414.646 764.808 415.246 C 765.208 415.646 765.708 415.746 765.908 415.546 C 766.908 414.446 770.408 387.146 769.608 386.346 C 769.108 385.846 768.508 386.446 768.208 387.846 Z " fill="rgb(255,255,255)"/><path d=" M 799.108 392.746 C 798.608 394.246 793.808 415.946 793.308 418.846 C 793.108 419.746 793.408 420.646 794.008 420.846 C 795.308 421.246 801.808 393.546 800.508 392.246 C 799.908 391.646 799.408 391.846 799.108 392.746 Z " fill="rgb(255,255,255)"/><path d=" M 825.608 413.546 C 821.208 427.346 821.008 428.646 822.508 428.646 C 823.008 428.646 824.808 424.046 826.508 418.346 C 828.308 412.746 830.108 406.846 830.608 405.246 C 831.708 401.646 831.708 400.646 830.608 400.646 C 830.108 400.646 827.908 406.446 825.608 413.546 Z " fill="rgb(255,255,255)"/><path d=" M 858.808 412.346 C 858.408 413.346 856.008 419.446 853.408 425.946 C 850.808 432.546 849.208 437.946 849.708 438.246 C 850.208 438.546 850.808 438.646 850.908 438.546 C 851.508 437.746 861.508 412.146 861.508 411.346 C 861.508 409.946 859.408 410.646 858.808 412.346 Z " fill="rgb(255,255,255)"/><path d=" M 885.608 429.046 C 883.908 432.646 880.908 438.846 879.008 442.646 C 877.008 446.546 875.908 449.846 876.508 450.146 C 877.908 451.046 890.908 424.646 889.608 423.346 C 888.908 422.646 887.608 424.546 885.608 429.046 Z " fill="rgb(255,255,255)"/><path d=" M 909.008 450.146 C 902.308 462.146 901.708 463.346 903.108 463.846 C 904.008 464.246 918.408 439.346 917.808 438.346 C 916.808 436.746 915.708 438.246 909.008 450.146 Z " fill="rgb(255,255,255)"/><path d=" M 934.708 466.646 C 930.208 473.246 926.508 478.846 926.508 479.146 C 926.508 479.446 927.108 479.646 927.808 479.646 C 929.008 479.546 943.708 458.546 944.308 455.946 C 945.208 452.346 942.108 455.746 934.708 466.646 Z " fill="rgb(255,255,255)"/><path d=" M 959.208 484.746 C 954.308 490.846 950.708 496.246 951.208 496.746 C 952.008 497.546 969.508 476.546 969.508 474.646 C 969.508 472.346 967.608 474.246 959.208 484.746 Z " fill="rgb(255,255,255)"/><path d=" M 982.308 504.346 C 976.908 510.246 972.908 515.446 973.208 516.046 C 973.908 517.146 993.508 496.846 993.508 494.846 C 993.508 492.546 992.008 493.846 982.308 504.346 Z " fill="rgb(255,255,255)"/><path d=" M 395.008 516.546 C 394.408 517.546 401.508 524.846 412.708 534.546 C 418.708 539.746 417.908 536.446 411.708 530.546 C 396.908 516.446 395.708 515.446 395.008 516.546 Z " fill="rgb(255,255,255)"/><path d=" M 374.708 540.946 C 375.208 543.146 396.508 560.046 397.508 559.046 C 398.008 558.546 393.408 554.146 387.208 549.146 C 374.908 539.246 374.208 538.746 374.708 540.946 Z " fill="rgb(255,255,255)"/><path d=" M 355.508 566.446 C 355.508 567.946 379.408 583.646 380.008 582.546 C 380.408 581.946 380.508 581.446 380.408 581.246 C 380.208 581.146 375.008 577.546 368.808 573.346 C 358.108 566.046 355.508 564.646 355.508 566.446 Z " fill="rgb(255,255,255)"/><path d=" M 342.108 587.546 C 341.308 588.746 366.608 602.946 367.708 601.846 C 368.208 601.346 363.208 597.946 356.008 593.846 C 349.108 589.846 343.208 586.646 343.008 586.646 C 342.808 586.646 342.408 587.046 342.108 587.546 Z " fill="rgb(255,255,255)"/><path d=" M 324.008 620.646 C 323.608 621.246 327.408 623.546 332.708 626.046 C 337.808 628.446 343.908 631.346 346.208 632.446 C 348.708 633.746 350.608 634.246 351.008 633.646 C 351.508 632.946 326.908 619.646 325.108 619.646 C 324.808 619.646 324.308 620.146 324.008 620.646 Z " fill="rgb(255,255,255)"/><path d=" M 311.708 649.846 C 312.008 650.546 317.708 653.246 324.608 655.946 C 339.208 661.546 338.608 661.446 339.108 660.146 C 339.508 659.246 314.408 648.646 312.108 648.646 C 311.708 648.646 311.508 649.146 311.708 649.846 Z " fill="rgb(255,255,255)"/><path d=" M 300.508 679.346 C 300.508 680.146 325.908 688.646 328.408 688.646 C 334.108 688.646 315.408 681.346 303.808 679.046 C 302.008 678.646 300.508 678.846 300.508 679.346 Z " fill="rgb(255,255,255)"/><path d=" M 293.008 709.546 C 292.208 710.946 292.208 710.946 307.008 714.146 C 313.608 715.646 319.608 716.946 320.308 717.146 C 320.908 717.446 321.508 717.046 321.508 716.346 C 321.508 715.446 317.208 714.046 309.808 712.346 C 303.308 710.846 297.008 709.346 295.908 709.046 C 294.708 708.746 293.408 708.946 293.008 709.546 Z " fill="rgb(255,255,255)"/><path d=" M 286.508 740.646 C 286.508 741.646 287.108 741.746 304.808 744.446 C 314.308 745.946 316.508 746.046 316.508 744.946 C 316.508 744.246 316.108 743.646 315.608 743.646 C 315.108 743.646 308.808 742.746 301.508 741.646 C 286.208 739.346 286.508 739.346 286.508 740.646 Z " fill="rgb(255,255,255)"/><path d=" M 283.508 771.946 C 283.508 773.146 285.908 773.646 296.308 774.246 C 312.508 775.346 312.808 775.346 313.208 774.046 C 313.408 773.346 309.808 772.746 302.308 772.246 C 296.108 771.846 289.308 771.246 287.308 770.946 C 284.308 770.546 283.508 770.746 283.508 771.946 Z " fill="rgb(255,255,255)"/><path d=" M 1010.008 520.346 C 996.408 532.746 993.508 535.746 994.008 536.646 C 994.608 537.646 1016.208 519.046 1016.408 517.346 C 1016.608 515.646 1013.708 516.946 1010.008 520.346 Z " fill="rgb(255,255,255)"/><path d=" M 1024.008 548.746 C 1013.308 557.346 1011.108 559.646 1013.408 559.646 C 1014.608 559.646 1035.808 542.846 1036.308 541.546 C 1037.408 538.746 1033.508 541.046 1024.008 548.746 Z " fill="rgb(255,255,255)"/><path d=" M 1042.008 573.346 C 1028.908 582.346 1030.208 581.246 1030.708 582.646 C 1031.008 583.646 1054.708 568.246 1055.308 566.546 C 1056.208 564.246 1052.208 566.346 1042.008 573.346 Z " fill="rgb(255,255,255)"/><path d=" M 1059.108 598.646 C 1046.508 605.946 1044.808 607.146 1046.208 607.946 C 1046.908 608.346 1069.708 595.746 1071.808 593.646 C 1072.308 593.246 1072.308 592.646 1071.808 592.346 C 1071.308 592.046 1065.608 594.846 1059.108 598.646 Z " fill="rgb(255,255,255)"/><path d=" M 1073.108 625.646 C 1060.708 631.746 1057.808 633.646 1060.808 633.646 C 1063.208 633.646 1086.508 621.846 1086.508 620.646 C 1086.508 619.146 1085.908 619.346 1073.108 625.646 Z " fill="rgb(255,255,255)"/><path d=" M 1084.308 653.946 C 1076.808 656.846 1071.508 659.546 1071.508 660.346 C 1071.508 661.046 1071.608 661.646 1071.808 661.646 C 1073.908 661.346 1099.008 650.546 1099.308 649.746 C 1099.908 647.946 1097.808 648.546 1084.308 653.946 Z " fill="rgb(255,255,255)"/><path d=" M 1093.808 682.746 C 1087.008 684.946 1081.508 687.146 1081.508 687.646 C 1081.508 688.246 1082.008 688.646 1082.608 688.646 C 1085.008 688.646 1109.508 680.246 1109.508 679.446 C 1109.508 678.046 1106.408 678.646 1093.808 682.746 Z " fill="rgb(255,255,255)"/><path d=" M 1102.008 712.046 C 1094.808 713.746 1089.208 715.646 1089.508 716.146 C 1090.108 717.246 1089.808 717.246 1102.008 714.546 C 1116.208 711.346 1118.608 710.646 1118.008 709.646 C 1117.208 708.346 1117.008 708.346 1102.008 712.046 Z " fill="rgb(255,255,255)"/><path d=" M 1107.608 741.746 C 1100.808 742.746 1094.908 743.846 1094.708 744.146 C 1093.008 745.746 1096.908 745.846 1107.808 744.246 C 1121.908 742.246 1123.508 741.846 1123.508 740.546 C 1123.508 739.446 1122.708 739.446 1107.608 741.746 Z " fill="rgb(255,255,255)"/><path d=" M 1110.208 771.946 C 1101.608 772.546 1097.508 773.246 1097.808 774.046 C 1098.208 775.346 1098.508 775.346 1114.808 774.246 C 1124.608 773.646 1127.508 773.146 1127.508 772.046 C 1127.508 771.246 1126.608 770.746 1125.308 770.846 C 1124.008 770.846 1117.208 771.446 1110.208 771.946 Z " fill="rgb(255,255,255)"/><path d=" M 1097.508 835.346 C 1097.508 835.946 1101.108 836.746 1105.808 837.046 C 1110.308 837.446 1117.008 837.946 1120.808 838.246 C 1127.708 838.846 1130.408 837.346 1124.308 836.246 C 1117.108 835.046 1097.508 834.346 1097.508 835.346 Z " fill="rgb(255,255,255)"/><path d=" M 1094.508 864.546 C 1094.508 865.446 1097.908 866.146 1114.808 868.746 C 1121.808 869.846 1124.808 869.546 1123.308 868.046 C 1122.608 867.446 1100.108 863.646 1096.808 863.646 C 1095.508 863.646 1094.508 864.046 1094.508 864.546 Z " fill="rgb(255,255,255)"/><path d=" M 1088.908 892.846 C 1088.608 893.346 1088.508 893.946 1088.708 894.146 C 1089.908 895.446 1116.908 900.646 1117.708 899.846 C 1118.308 899.246 1115.308 898.046 1109.308 896.746 C 1104.208 895.546 1097.608 893.946 1094.708 893.246 C 1091.408 892.346 1089.308 892.146 1088.908 892.846 Z " fill="rgb(255,255,255)"/><path d=" M 1081.508 922.146 C 1081.508 922.946 1082.308 923.646 1083.308 923.646 C 1084.308 923.646 1090.408 925.446 1097.008 927.646 C 1105.808 930.646 1109.108 931.346 1109.608 930.446 C 1110.208 929.546 1106.908 928.146 1098.408 925.546 C 1081.608 920.346 1081.508 920.346 1081.508 922.146 Z " fill="rgb(255,255,255)"/><path d=" M 1071.508 949.546 C 1071.508 950.446 1096.208 960.646 1098.408 960.646 C 1101.908 960.646 1098.008 958.346 1086.508 953.846 C 1073.108 948.446 1071.508 948.046 1071.508 949.546 Z " fill="rgb(255,255,255)"/><path d=" M 1059.508 976.546 C 1059.508 976.946 1065.008 979.946 1071.808 983.146 C 1087.008 990.246 1086.508 990.046 1086.508 988.746 C 1086.508 987.646 1062.608 975.646 1060.508 975.646 C 1059.908 975.646 1059.508 976.046 1059.508 976.546 Z " fill="rgb(255,255,255)"/><path d=" M 1045.508 1002.346 C 1045.608 1003.846 1070.908 1017.646 1071.808 1016.746 C 1072.308 1016.246 1067.508 1012.946 1060.208 1008.746 C 1048.308 1001.946 1045.508 1000.746 1045.508 1002.346 Z " fill="rgb(255,255,255)"/><path d=" M 1030.508 1026.946 C 1030.508 1028.646 1054.208 1044.946 1054.908 1043.746 C 1055.608 1042.646 1053.808 1041.146 1042.808 1033.846 C 1037.808 1030.446 1033.408 1027.246 1033.008 1026.646 C 1032.108 1025.246 1030.508 1025.446 1030.508 1026.946 Z " fill="rgb(255,255,255)"/><path d=" M 1013.108 1050.546 C 1012.208 1051.846 1034.808 1069.746 1035.908 1068.546 C 1036.408 1068.046 1036.708 1067.546 1036.408 1067.346 C 1036.208 1067.246 1031.508 1063.546 1026.008 1059.146 C 1020.508 1054.846 1015.508 1050.946 1014.808 1050.446 C 1014.208 1049.946 1013.408 1049.946 1013.108 1050.546 Z " fill="rgb(255,255,255)"/><path d=" M 994.008 1072.646 C 993.708 1073.146 997.208 1077.246 1001.908 1081.746 C 1012.608 1091.846 1015.208 1093.946 1015.908 1092.746 C 1016.208 1092.246 1011.608 1087.346 1005.608 1081.746 C 999.508 1076.146 994.408 1072.046 994.008 1072.646 Z " fill="rgb(255,255,255)"/><path d=" M 292.308 835.546 C 285.008 836.246 282.508 836.946 283.708 838.146 C 284.608 839.046 311.908 836.646 313.008 835.546 C 314.008 834.546 304.708 834.546 292.308 835.546 Z " fill="rgb(255,255,255)"/><path d=" M 298.708 865.746 C 292.408 866.746 287.008 867.746 286.708 868.046 C 285.008 869.746 288.708 869.846 298.808 868.246 C 315.708 865.646 316.508 865.446 316.508 864.546 C 316.508 863.346 311.908 863.646 298.708 865.746 Z " fill="rgb(255,255,255)"/><path d=" M 306.708 895.446 C 297.908 897.546 292.708 899.246 293.208 899.746 C 294.108 900.646 319.908 895.546 321.208 894.346 C 323.308 892.146 319.108 892.546 306.708 895.446 Z " fill="rgb(255,255,255)"/><path d=" M 314.008 924.846 C 299.508 929.346 300.108 929.146 300.908 930.446 C 301.608 931.646 328.808 923.346 329.308 921.746 C 329.808 920.146 328.308 920.446 314.008 924.846 Z " fill="rgb(255,255,255)"/><path d=" M 324.108 953.746 C 311.508 958.946 310.808 959.246 311.808 960.346 C 312.708 961.146 339.508 950.646 339.508 949.446 C 339.508 947.846 335.908 948.846 324.108 953.746 Z " fill="rgb(255,255,255)"/><path d=" M 336.708 981.446 C 329.108 985.246 323.808 988.346 324.308 988.846 C 325.608 990.146 351.708 977.446 350.708 976.046 C 350.208 975.346 345.608 977.046 336.708 981.446 Z " fill="rgb(255,255,255)"/><path d=" M 358.508 1004.046 C 355.508 1005.946 349.708 1009.246 345.708 1011.646 C 341.208 1014.146 338.708 1016.246 339.208 1016.746 C 340.508 1018.046 365.508 1003.346 364.608 1001.846 C 364.208 1001.146 362.108 1001.946 358.508 1004.046 Z " fill="rgb(255,255,255)"/><path d=" M 367.008 1034.246 C 354.108 1043.146 355.108 1042.246 355.908 1043.546 C 356.608 1044.546 379.708 1029.446 380.308 1027.646 C 381.108 1025.346 377.308 1027.246 367.008 1034.246 Z " fill="rgb(255,255,255)"/><path d=" M 384.808 1058.946 C 378.408 1064.246 374.008 1068.546 374.508 1069.046 C 375.508 1070.046 398.708 1051.746 397.908 1050.446 C 397.008 1049.046 396.408 1049.546 384.808 1058.946 Z " fill="rgb(255,255,255)"/><path d=" M 405.108 1081.946 C 399.208 1087.546 394.608 1092.446 395.108 1092.846 C 395.508 1093.246 397.908 1091.746 400.408 1089.346 C 403.008 1087.046 407.908 1082.546 411.408 1079.346 C 415.108 1075.946 417.408 1073.146 416.908 1072.646 C 416.408 1072.146 411.408 1076.146 405.108 1081.946 Z " fill="rgb(255,255,255)"/><path d=" M 426.708 1103.346 C 421.208 1109.246 416.908 1114.546 417.208 1114.946 C 417.808 1115.946 422.208 1111.946 431.608 1101.446 C 435.408 1097.246 438.108 1093.546 437.608 1093.246 C 437.108 1092.946 432.208 1097.446 426.708 1103.346 Z " fill="rgb(255,255,255)"/><path d=" M 449.608 1123.246 C 444.208 1130.046 440.708 1135.246 441.208 1135.746 C 441.708 1136.246 446.008 1131.846 451.408 1125.046 C 456.708 1118.446 460.308 1113.046 459.808 1112.546 C 459.308 1112.046 454.908 1116.746 449.608 1123.246 Z " fill="rgb(255,255,255)"/><path d=" M 473.808 1141.646 C 469.308 1148.346 466.108 1153.846 466.608 1154.246 C 467.908 1155.046 466.908 1156.146 476.308 1142.446 C 483.408 1132.046 484.708 1129.546 482.608 1129.746 C 482.308 1129.746 478.308 1135.146 473.808 1141.646 Z " fill="rgb(255,255,255)"/><path d=" M 506.108 1146.446 C 505.808 1147.346 502.608 1153.046 499.008 1159.046 C 495.508 1165.046 492.808 1170.346 493.108 1170.846 C 494.108 1172.346 495.208 1170.846 501.008 1160.446 C 504.108 1154.846 507.308 1149.346 508.108 1148.046 C 509.408 1146.146 509.408 1145.846 508.108 1145.346 C 507.208 1144.946 506.408 1145.446 506.108 1146.446 Z " fill="rgb(255,255,255)"/><path d=" M 526.908 1171.446 C 523.708 1178.446 521.008 1184.446 521.008 1184.846 C 521.008 1187.746 523.408 1184.046 529.008 1172.746 C 533.508 1163.646 535.008 1159.646 534.108 1159.346 C 533.208 1158.946 530.808 1163.146 526.908 1171.446 Z " fill="rgb(255,255,255)"/><path d=" M 554.708 1183.646 C 549.308 1197.246 548.908 1198.646 550.408 1198.646 C 551.308 1198.646 561.508 1174.146 561.508 1171.846 C 561.508 1168.246 559.308 1172.046 554.708 1183.646 Z " fill="rgb(255,255,255)"/><path d=" M 587.508 1180.846 C 587.408 1181.046 585.508 1187.346 583.108 1194.946 C 580.708 1202.646 579.208 1208.946 579.708 1209.246 C 580.208 1209.546 580.808 1209.646 581.008 1209.546 C 581.308 1209.046 589.508 1182.046 589.508 1181.246 C 589.508 1180.646 587.508 1180.346 587.508 1180.846 Z " fill="rgb(255,255,255)"/><path d=" M 613.208 1199.346 C 609.608 1214.846 609.108 1217.646 610.308 1217.646 C 610.908 1217.646 612.808 1211.446 614.508 1203.846 C 616.308 1196.346 617.908 1189.846 618.208 1189.346 C 618.408 1188.946 618.008 1188.646 617.108 1188.646 C 616.108 1188.646 615.008 1191.746 613.208 1199.346 Z " fill="rgb(255,255,255)"/><path d=" M 643.908 1198.346 C 643.608 1201.046 642.508 1207.746 641.508 1213.346 C 640.108 1221.646 640.108 1223.646 641.108 1223.646 C 641.808 1223.646 642.708 1222.146 643.008 1220.346 C 644.708 1209.946 646.508 1197.846 646.508 1195.846 C 646.508 1191.746 644.608 1193.546 643.908 1198.346 Z " fill="rgb(255,255,255)"/><path d=" M 673.108 1205.346 C 672.808 1209.646 672.208 1216.146 671.908 1219.846 C 671.508 1224.046 671.708 1226.646 672.308 1226.646 C 673.808 1226.646 674.308 1223.546 675.108 1209.846 C 675.508 1201.846 675.408 1197.646 674.708 1197.646 C 674.208 1197.646 673.408 1201.146 673.108 1205.346 Z " fill="rgb(255,255,255)"/><path d=" M 973.108 1093.446 C 972.708 1094.146 975.508 1097.846 979.808 1102.346 C 983.908 1106.646 988.408 1111.446 989.808 1113.146 C 991.508 1115.146 992.708 1115.846 993.308 1115.146 C 994.008 1114.446 990.808 1110.446 984.108 1103.246 C 977.708 1096.546 973.508 1092.746 973.108 1093.446 Z " fill="rgb(255,255,255)"/><path d=" M 950.508 1113.246 C 950.508 1114.646 968.008 1135.646 969.208 1135.646 C 971.208 1135.646 970.808 1134.746 967.308 1130.646 C 965.508 1128.646 961.408 1123.746 958.208 1119.846 C 953.108 1113.546 950.508 1111.346 950.508 1113.246 Z " fill="rgb(255,255,255)"/><path d=" M 927.208 1130.246 C 926.508 1131.046 942.308 1154.646 943.608 1154.646 C 945.408 1154.646 944.408 1152.646 937.408 1142.446 C 929.508 1130.946 928.208 1129.346 927.208 1130.246 Z " fill="rgb(255,255,255)"/><path d=" M 902.908 1148.346 C 903.708 1149.946 906.808 1155.346 909.908 1160.546 C 912.908 1165.646 915.608 1170.346 915.808 1170.946 C 916.008 1171.546 916.608 1171.646 917.308 1171.346 C 918.708 1170.446 904.608 1145.646 902.708 1145.646 C 901.708 1145.646 901.808 1146.246 902.908 1148.346 Z " fill="rgb(255,255,255)"/><path d=" M 879.908 1168.846 C 886.708 1183.446 888.508 1186.746 889.508 1186.146 C 890.508 1185.546 888.408 1180.446 881.908 1167.346 C 876.408 1156.246 874.608 1157.546 879.908 1168.846 Z " fill="rgb(255,255,255)"/><path d=" M 849.308 1171.146 C 848.708 1171.846 858.108 1196.646 859.508 1198.046 C 862.008 1200.546 861.308 1196.846 857.708 1187.946 C 855.508 1182.546 853.208 1176.446 852.508 1174.346 C 851.408 1170.846 850.508 1169.946 849.308 1171.146 Z " fill="rgb(255,255,255)"/><path d=" M 821.508 1181.746 C 821.508 1184.146 829.908 1209.646 830.708 1209.646 C 831.808 1209.646 831.708 1207.646 830.608 1204.046 C 830.008 1202.446 828.208 1196.546 826.508 1190.846 C 824.808 1185.246 823.008 1180.646 822.508 1180.646 C 821.908 1180.646 821.508 1181.146 821.508 1181.746 Z " fill="rgb(255,255,255)"/><path d=" M 793.108 1190.346 C 793.308 1191.346 794.608 1197.346 796.008 1203.646 C 799.208 1217.846 799.308 1218.246 800.508 1217.046 C 801.808 1215.746 795.408 1188.646 793.808 1188.646 C 793.208 1188.646 792.908 1189.446 793.108 1190.346 Z " fill="rgb(255,255,255)"/><path d=" M 764.008 1195.846 C 764.308 1197.146 765.408 1203.746 766.408 1210.546 C 768.308 1222.446 768.908 1224.546 770.008 1223.446 C 770.608 1222.846 766.808 1195.946 765.908 1194.546 C 764.808 1192.746 763.508 1193.746 764.008 1195.846 Z " fill="rgb(255,255,255)"/><path d=" M 735.808 1197.446 C 734.008 1198.546 736.308 1226.646 738.208 1226.646 C 739.308 1226.646 739.408 1225.346 738.908 1220.346 C 738.608 1216.946 738.008 1210.246 737.708 1205.446 C 737.208 1199.046 736.708 1196.946 735.808 1197.446 Z " fill="rgb(255,255,255)"/><path d=" M 1311.808 853.646 C 1291.108 856.546 1269.808 867.246 1253.608 883.046 C 1221.008 914.746 1214.308 961.246 1236.508 1002.346 C 1241.708 1012.146 1247.608 1019.546 1256.608 1028.146 C 1269.008 1039.846 1281.508 1047.046 1299.008 1052.246 C 1307.208 1054.746 1309.508 1055.046 1323.508 1054.946 C 1336.008 1054.946 1340.508 1054.546 1346.708 1052.846 C 1380.608 1043.646 1405.608 1022.446 1418.708 991.846 C 1429.208 967.546 1428.108 937.646 1416.008 911.846 C 1402.208 882.646 1374.208 860.046 1345.008 854.646 C 1336.608 853.146 1319.208 852.646 1311.808 853.646 Z  M 1340.408 898.546 C 1358.508 904.146 1374.108 920.246 1380.108 939.346 C 1382.208 946.346 1383.008 959.146 1381.608 965.946 C 1377.308 986.246 1358.508 1004.746 1336.508 1010.246 C 1327.608 1012.446 1313.208 1011.746 1305.008 1008.646 C 1280.108 999.146 1263.408 970.946 1267.308 944.946 C 1270.508 924.046 1288.208 904.846 1310.008 898.546 C 1318.408 896.046 1332.608 896.146 1340.408 898.546 Z " fill="rgb(255,255,255)"/><path d=" M 1186.708 1108.646 C 1176.508 1111.046 1163.108 1116.846 1154.508 1122.646 C 1143.308 1130.146 1133.008 1141.646 1113.608 1168.446 C 1098.008 1189.946 1095.408 1193.946 1096.608 1195.146 C 1097.708 1196.246 1240.508 1300.846 1251.108 1308.346 L 1254.208 1310.546 L 1266.108 1294.346 C 1288.508 1263.746 1293.708 1256.146 1297.508 1248.646 C 1305.308 1233.046 1309.208 1215.046 1308.108 1199.646 C 1304.808 1157.146 1275.608 1121.846 1233.508 1109.646 C 1222.608 1106.446 1198.408 1105.946 1186.708 1108.646 Z  M 1218.508 1151.246 C 1238.208 1155.846 1256.108 1172.046 1262.708 1191.246 C 1269.108 1209.746 1265.708 1226.746 1252.008 1245.946 L 1247.308 1252.446 L 1231.108 1240.646 C 1166.608 1193.346 1154.108 1184.046 1153.808 1183.146 C 1153.308 1181.446 1164.708 1167.146 1170.508 1162.246 C 1183.508 1151.146 1201.108 1147.146 1218.508 1151.246 Z " fill="rgb(255,255,255)"/><path d=" M 1035.508 1243.146 C 1025.908 1248.846 1017.908 1253.946 1017.708 1254.446 C 1017.608 1254.946 1031.408 1278.646 1048.508 1307.146 C 1065.608 1335.646 1079.408 1359.046 1079.308 1359.146 C 1079.108 1359.246 1056.308 1346.146 1028.508 1329.946 C 1000.708 1313.846 973.608 1298.146 968.308 1295.046 L 958.608 1289.446 L 940.008 1300.646 C 929.808 1306.746 921.608 1312.046 921.808 1312.446 C 926.208 1320.746 1022.908 1480.646 1023.508 1480.446 C 1023.908 1480.246 1032.108 1475.446 1041.908 1469.646 C 1054.108 1462.346 1059.408 1458.646 1059.208 1457.646 C 1058.908 1456.846 1045.008 1433.246 1028.208 1405.246 C 1011.308 1377.146 997.608 1354.146 997.808 1354.046 C 998.008 1353.846 1029.608 1372.046 1090.208 1407.246 L 1118.408 1423.646 L 1136.208 1413.046 C 1146.008 1407.146 1154.408 1402.046 1154.808 1401.646 C 1155.708 1400.846 1055.508 1233.446 1053.908 1232.946 C 1053.408 1232.846 1045.108 1237.446 1035.508 1243.146 Z " fill="rgb(255,255,255)"/><path d=" M 467.208 1290.346 C 467.008 1290.746 445.308 1329.146 419.008 1375.646 C 392.808 1422.146 370.708 1461.146 369.908 1462.346 C 368.608 1464.446 368.908 1464.646 391.208 1472.046 C 403.708 1476.246 414.008 1479.546 414.108 1479.346 C 414.208 1479.246 428.608 1452.546 446.008 1420.146 C 463.408 1387.646 478.108 1360.746 478.608 1360.146 C 479.108 1359.646 479.308 1362.146 479.008 1366.646 C 478.708 1370.746 477.308 1398.846 476.008 1429.146 C 474.608 1459.346 473.308 1487.546 473.008 1491.746 L 472.408 1499.446 L 492.208 1506.046 C 503.108 1509.646 512.308 1512.646 512.608 1512.646 C 513.008 1512.646 531.008 1486.746 552.608 1455.146 C 574.208 1423.546 592.108 1397.846 592.308 1398.046 C 592.608 1398.446 573.208 1524.646 572.008 1530.246 C 571.608 1532.246 573.308 1533.046 594.008 1540.146 C 606.408 1544.446 616.708 1547.746 616.908 1547.546 C 617.108 1547.346 623.108 1502.646 630.308 1448.146 C 640.108 1374.246 643.108 1348.946 642.208 1348.446 C 641.508 1348.046 630.508 1344.246 617.708 1339.946 C 602.108 1334.746 594.208 1332.546 593.708 1333.246 C 587.908 1341.946 512.208 1449.646 512.008 1449.446 C 511.908 1449.246 512.808 1419.246 514.108 1382.646 C 515.408 1346.046 516.408 1313.846 516.508 1311.146 L 516.508 1306.146 L 493.208 1298.246 C 480.508 1293.946 469.508 1290.146 468.908 1289.946 C 468.208 1289.746 467.508 1289.846 467.208 1290.346 Z " fill="rgb(255,255,255)"/><path d=" M 850.708 1332.646 C 840.008 1334.246 831.108 1335.746 830.808 1336.046 C 830.508 1336.346 834.008 1362.946 838.508 1395.246 C 845.508 1445.146 846.708 1455.546 846.308 1464.046 C 846.008 1472.946 845.608 1474.846 843.008 1479.646 C 839.308 1486.346 833.708 1490.746 824.808 1493.746 C 819.108 1495.746 816.008 1496.146 806.008 1496.146 C 794.508 1496.146 793.808 1496.046 788.608 1493.146 C 785.408 1491.446 781.808 1488.246 779.808 1485.646 C 773.808 1477.446 772.308 1470.046 763.508 1407.146 C 758.908 1374.646 754.908 1347.746 754.508 1347.346 C 753.908 1346.646 714.208 1351.546 712.608 1352.646 C 712.108 1352.946 713.508 1365.046 715.508 1379.646 C 717.608 1394.246 721.608 1422.746 724.508 1442.946 C 727.308 1463.146 730.508 1482.946 731.608 1486.946 C 738.808 1513.146 756.008 1531.246 780.208 1537.846 C 790.508 1540.646 812.808 1540.846 825.808 1538.346 C 865.208 1530.546 886.908 1509.046 890.508 1474.446 C 891.708 1462.446 891.208 1457.546 881.508 1389.046 C 877.108 1357.646 873.508 1331.446 873.508 1330.746 C 873.508 1329.346 873.908 1329.346 850.708 1332.646 Z " fill="rgb(255,255,255)"/></g></g></svg>